<svg width="2346" height="726" viewBox="0 0 2346 726" fill="none" xmlns="http://www.w3.org/2000/svg">
<rect x="32" y="32" width="1125" height="662" rx="32" fill="#F6F6F6"/>
<rect x="987" y="538" width="99" height="99" rx="49.5" fill="#9A0000"/>
<rect x="849" y="538" width="99" height="99" rx="49.5" fill="#9A5200"/>
<rect x="711" y="538" width="99" height="99" rx="49.5" fill="#9A7100"/>
<rect x="573" y="538" width="99" height="99" rx="49.5" fill="#008B9A"/>
<rect x="849" y="420" width="99" height="99" rx="49.5" fill="#299A00"/>
<rect x="987" y="420" width="99" height="99" rx="49.5" fill="#5F9A00"/>
<rect x="987" y="302" width="99" height="99" rx="49.5" fill="#00679A"/>
<rect x="849" y="302" width="99" height="99" rx="49.5" fill="#62009A"/>
<rect x="711" y="420" width="99" height="99" rx="49.5" fill="#9A0074"/>
<rect x="849" y="538" width="99" height="99" rx="49.5" fill="#9A5200"/>
<rect x="711" y="538" width="99" height="99" rx="49.5" fill="#9A7100"/>
<rect x="573" y="538" width="99" height="99" rx="49.5" fill="#008B9A"/>
<rect x="849" y="420" width="99" height="99" rx="49.5" fill="#299A00"/>
<rect x="987" y="420" width="99" height="99" rx="49.5" fill="#5F9A00"/>
<rect x="987" y="302" width="99" height="99" rx="49.5" fill="#00679A"/>
<rect x="849" y="302" width="99" height="99" rx="49.5" fill="#62009A"/>
<rect x="711" y="420" width="99" height="99" rx="49.5" fill="#9A0074"/>
<rect x="1189" y="32" width="1125" height="662" rx="32" fill="#141414"/>
<rect x="2144" y="538" width="99" height="99" rx="49.5" fill="#FF7272"/>
<rect x="2006" y="538" width="99" height="99" rx="49.5" fill="#FFAD72"/>
<rect x="1868" y="538" width="99" height="99" rx="49.5" fill="#FFDE72"/>
<rect x="1730" y="538" width="99" height="99" rx="49.5" fill="#72E0FF"/>
<rect x="2006" y="420" width="99" height="99" rx="49.5" fill="#72FF7B"/>
<rect x="2144" y="420" width="99" height="99" rx="49.5" fill="#A8FF72"/>
<rect x="2144" y="302" width="99" height="99" rx="49.5" fill="#72BBFF"/>
<rect x="2006" y="302" width="99" height="99" rx="49.5" fill="#C272FF"/>
<rect x="1868" y="420" width="99" height="99" rx="49.5" fill="#FF72F6"/>
</svg>
